<?xml version="1.0" encoding="UTF-8" standalone="no"?>
<!DOCTYPE svg PUBLIC "-//W3C//DTD SVG 1.1//EN" "http://www.w3.org/Graphics/SVG/1.1/DTD/svg11.dtd">
<svg width="100%" height="100%" viewBox="0 0 2953 1772" version="1.1" xmlns="http://www.w3.org/2000/svg" xmlns:xlink="http://www.w3.org/1999/xlink" xml:space="preserve" xmlns:serif="http://www.serif.com/" style="fill-rule:evenodd;clip-rule:evenodd;stroke-linejoin:round;stroke-miterlimit:2;">
    <g transform="matrix(1.25,0,0,1.25,-369.094488,-361.676465)">
        <g transform="matrix(10.559699,0,0,10.559699,-15556.422399,-22970.041602)">
            <path d="M1511.001,2269.816C1509.534,2269.316 1508.201,2268.807 1507.001,2268.291C1505.801,2267.774 1504.767,2267.149 1503.901,2266.416C1503.034,2265.682 1502.359,2264.807 1501.876,2263.791C1501.392,2262.774 1501.151,2261.532 1501.151,2260.066C1501.151,2257.232 1502.242,2254.966 1504.426,2253.266C1506.609,2251.566 1509.667,2250.716 1513.601,2250.716C1515.034,2250.716 1516.367,2250.816 1517.601,2251.016C1518.834,2251.216 1519.892,2251.524 1520.776,2251.941C1521.659,2252.357 1522.351,2252.891 1522.851,2253.541C1523.351,2254.191 1523.601,2254.949 1523.601,2255.816C1523.601,2256.682 1523.401,2257.424 1523.001,2258.041C1522.601,2258.657 1522.117,2259.182 1521.551,2259.616C1520.817,2259.149 1519.834,2258.741 1518.601,2258.391C1517.367,2258.041 1516.017,2257.866 1514.551,2257.866C1513.051,2257.866 1511.951,2258.074 1511.251,2258.491C1510.551,2258.907 1510.201,2259.432 1510.201,2260.066C1510.201,2260.566 1510.417,2260.974 1510.851,2261.291C1511.284,2261.607 1511.934,2261.899 1512.801,2262.166L1515.451,2263.016C1518.584,2264.016 1520.992,2265.291 1522.676,2266.841C1524.359,2268.391 1525.201,2270.499 1525.201,2273.166C1525.201,2275.999 1524.084,2278.291 1521.851,2280.041C1519.617,2281.791 1516.334,2282.666 1512.001,2282.666C1510.467,2282.666 1509.042,2282.541 1507.726,2282.291C1506.409,2282.041 1505.259,2281.674 1504.276,2281.191C1503.292,2280.707 1502.526,2280.107 1501.976,2279.391C1501.426,2278.674 1501.151,2277.849 1501.151,2276.916C1501.151,2275.949 1501.434,2275.124 1502.001,2274.441C1502.567,2273.757 1503.184,2273.232 1503.851,2272.866C1504.784,2273.599 1505.926,2274.232 1507.276,2274.766C1508.626,2275.299 1510.101,2275.566 1511.701,2275.566C1513.334,2275.566 1514.484,2275.316 1515.151,2274.816C1515.817,2274.316 1516.151,2273.732 1516.151,2273.066C1516.151,2272.399 1515.884,2271.891 1515.351,2271.541C1514.817,2271.191 1514.067,2270.849 1513.101,2270.516L1511.001,2269.816Z" style="fill:rgb(255,3,50);"/>
            <path d="M1535.721,2259.509C1536.273,2259.503 1536.629,2259.499 1536.629,2259.499L1537.801,2259.513L1544.351,2259.466C1544.551,2259.832 1544.742,2260.291 1544.926,2260.841C1545.109,2261.391 1545.201,2261.999 1545.201,2262.666C1545.201,2263.832 1544.942,2264.674 1544.426,2265.191C1543.909,2265.707 1543.217,2265.966 1542.351,2265.966L1537.801,2265.966L1537.801,2273.516C1537.801,2274.382 1538.076,2274.999 1538.626,2275.366C1539.176,2275.732 1539.951,2275.916 1540.951,2275.916C1541.451,2275.916 1541.967,2275.874 1542.501,2275.791C1543.034,2275.707 1543.501,2275.599 1543.901,2275.466C1544.201,2275.832 1544.459,2276.241 1544.676,2276.691C1544.892,2277.141 1545.001,2277.682 1545.001,2278.316C1545.001,2279.582 1544.526,2280.616 1543.576,2281.416C1542.626,2282.216 1540.951,2282.616 1538.551,2282.616C1535.617,2282.616 1533.359,2281.949 1531.776,2280.616C1530.192,2279.282 1529.401,2277.116 1529.401,2274.116L1529.631,2259.594C1529.765,2259.583 1530.733,2259.568 1531.908,2259.552C1532.451,2259.9 1533.089,2260.093 1533.785,2260.191C1534.553,2260.086 1535.198,2259.858 1535.721,2259.509ZM1531.908,2259.552C1533.208,2259.535 1534.761,2259.519 1535.721,2259.509L1531.908,2259.552Z" style="fill:rgb(255,3,50);"/>
            <path d="M1553.101,2275.666C1552.734,2274.832 1552.342,2273.899 1551.926,2272.866C1551.509,2271.832 1551.076,2270.649 1550.626,2269.316C1550.176,2267.982 1549.709,2266.457 1549.226,2264.741C1548.742,2263.024 1548.234,2261.049 1547.701,2258.816C1548.167,2258.349 1548.792,2257.941 1549.576,2257.591C1550.359,2257.241 1551.217,2257.066 1552.151,2257.066C1553.317,2257.066 1554.284,2257.307 1555.051,2257.791C1555.817,2258.274 1556.384,2259.182 1556.751,2260.516L1560.701,2274.266L1560.901,2274.266C1561.301,2273.132 1561.692,2271.899 1562.076,2270.566C1562.459,2269.232 1562.834,2267.857 1563.201,2266.441C1563.567,2265.024 1563.909,2263.607 1564.226,2262.191C1564.542,2260.774 1564.817,2259.382 1565.051,2258.016C1566.251,2257.382 1567.567,2257.066 1569.001,2257.066C1570.167,2257.066 1571.134,2257.316 1571.901,2257.816C1572.667,2258.316 1573.051,2259.182 1573.051,2260.416C1573.051,2261.316 1572.934,2262.357 1572.701,2263.541C1572.467,2264.724 1572.159,2265.982 1571.776,2267.316C1571.392,2268.649 1570.942,2270.024 1570.426,2271.441C1569.909,2272.857 1569.367,2274.249 1568.801,2275.616C1568.234,2276.982 1567.651,2278.274 1567.051,2279.491C1566.451,2280.707 1565.867,2281.799 1565.301,2282.766C1564.367,2284.399 1563.501,2285.732 1562.701,2286.766C1561.901,2287.799 1561.134,2288.607 1560.401,2289.191C1559.667,2289.774 1558.934,2290.174 1558.201,2290.391C1557.467,2290.607 1556.701,2290.716 1555.901,2290.716C1554.501,2290.716 1553.367,2290.299 1552.501,2289.466C1551.634,2288.632 1551.117,2287.549 1550.951,2286.216C1552.017,2285.382 1553.084,2284.457 1554.151,2283.441C1555.217,2282.424 1556.184,2281.382 1557.051,2280.316C1556.484,2280.149 1555.876,2279.757 1555.226,2279.141C1554.576,2278.524 1553.867,2277.366 1553.101,2275.666Z" style="fill:rgb(255,3,50);"/>
            <path d="M1585.501,2281.816C1585.134,2281.882 1584.592,2281.974 1583.876,2282.091C1583.159,2282.207 1582.434,2282.266 1581.701,2282.266C1580.967,2282.266 1580.309,2282.216 1579.726,2282.116C1579.142,2282.016 1578.651,2281.816 1578.251,2281.516C1577.851,2281.216 1577.542,2280.807 1577.326,2280.291C1577.109,2279.774 1577.001,2279.099 1577.001,2278.266L1577.001,2249.266C1577.367,2249.199 1577.909,2249.107 1578.626,2248.991C1579.342,2248.874 1580.067,2248.816 1580.801,2248.816C1581.534,2248.816 1582.192,2248.866 1582.776,2248.966C1583.359,2249.066 1583.851,2249.266 1584.251,2249.566C1584.651,2249.866 1584.959,2250.274 1585.176,2250.791C1585.392,2251.307 1585.501,2251.982 1585.501,2252.816L1585.501,2281.816Z" style="fill:rgb(255,3,50);"/>
            <path d="M1603.701,2282.666C1601.734,2282.666 1599.909,2282.391 1598.226,2281.841C1596.542,2281.291 1595.076,2280.466 1593.826,2279.366C1592.576,2278.266 1591.592,2276.882 1590.876,2275.216C1590.159,2273.549 1589.801,2271.599 1589.801,2269.366C1589.801,2267.166 1590.159,2265.274 1590.876,2263.691C1591.592,2262.107 1592.534,2260.807 1593.701,2259.791C1594.867,2258.774 1596.201,2258.024 1597.701,2257.541C1599.201,2257.057 1600.734,2256.816 1602.301,2256.816C1604.067,2256.816 1605.676,2257.082 1607.126,2257.616C1608.576,2258.149 1609.826,2258.882 1610.876,2259.816C1611.926,2260.749 1612.742,2261.866 1613.326,2263.166C1613.909,2264.466 1614.201,2265.882 1614.201,2267.416C1614.201,2268.549 1613.884,2269.416 1613.251,2270.016C1612.617,2270.616 1611.734,2270.999 1610.601,2271.166L1598.251,2273.016C1598.617,2274.116 1599.367,2274.941 1600.501,2275.491C1601.634,2276.041 1602.934,2276.316 1604.401,2276.316C1605.767,2276.316 1607.059,2276.141 1608.276,2275.791C1609.492,2275.441 1610.484,2275.032 1611.251,2274.566C1611.784,2274.899 1612.234,2275.366 1612.601,2275.966C1612.967,2276.566 1613.151,2277.199 1613.151,2277.866C1613.151,2279.366 1612.451,2280.482 1611.051,2281.216C1609.984,2281.782 1608.784,2282.166 1607.451,2282.366C1606.117,2282.566 1604.867,2282.666 1603.701,2282.666ZM1602.301,2263.016C1601.501,2263.016 1600.809,2263.149 1600.226,2263.416C1599.642,2263.682 1599.167,2264.024 1598.801,2264.441C1598.434,2264.857 1598.159,2265.324 1597.976,2265.841C1597.792,2266.357 1597.684,2266.882 1597.651,2267.416L1606.201,2266.016C1606.101,2265.349 1605.734,2264.682 1605.101,2264.016C1604.467,2263.349 1603.534,2263.016 1602.301,2263.016Z" style="fill:rgb(255,3,50);"/>
            <path d="M1633.701,2266.466C1633.701,2265.432 1633.409,2264.674 1632.826,2264.191C1632.242,2263.707 1631.451,2263.466 1630.451,2263.466C1629.784,2263.466 1629.126,2263.549 1628.476,2263.716C1627.826,2263.882 1627.267,2264.132 1626.801,2264.466L1626.801,2281.816C1626.467,2281.916 1625.942,2282.016 1625.226,2282.116C1624.509,2282.216 1623.767,2282.266 1623.001,2282.266C1622.267,2282.266 1621.609,2282.216 1621.026,2282.116C1620.442,2282.016 1619.951,2281.816 1619.551,2281.516C1619.151,2281.216 1618.842,2280.807 1618.626,2280.291C1618.409,2279.774 1618.301,2279.099 1618.301,2278.266L1618.301,2263.266C1618.301,2262.366 1618.492,2261.632 1618.876,2261.066C1619.259,2260.499 1619.784,2259.982 1620.451,2259.516C1621.584,2258.716 1623.009,2258.066 1624.726,2257.566C1626.442,2257.066 1628.351,2256.816 1630.451,2256.816C1634.217,2256.816 1637.117,2257.641 1639.151,2259.291C1641.184,2260.941 1642.201,2263.232 1642.201,2266.166L1642.201,2281.816C1641.867,2281.916 1641.342,2282.016 1640.626,2282.116C1639.909,2282.216 1639.167,2282.266 1638.401,2282.266C1637.667,2282.266 1637.009,2282.216 1636.426,2282.116C1635.842,2282.016 1635.351,2281.816 1634.951,2281.516C1634.551,2281.216 1634.242,2280.807 1634.026,2280.291C1633.809,2279.774 1633.701,2279.099 1633.701,2278.266L1633.701,2266.466Z" style="fill:rgb(255,3,50);"/>
            <path d="M1672.601,2269.716C1672.601,2271.782 1672.284,2273.624 1671.651,2275.241C1671.017,2276.857 1670.126,2278.216 1668.976,2279.316C1667.826,2280.416 1666.451,2281.249 1664.851,2281.816C1663.251,2282.382 1661.467,2282.666 1659.501,2282.666C1657.534,2282.666 1655.751,2282.366 1654.151,2281.766C1652.551,2281.166 1651.176,2280.307 1650.026,2279.191C1648.876,2278.074 1647.984,2276.716 1647.351,2275.116C1646.717,2273.516 1646.401,2271.716 1646.401,2269.716C1646.401,2267.749 1646.717,2265.966 1647.351,2264.366C1647.984,2262.766 1648.876,2261.407 1650.026,2260.291C1651.176,2259.174 1652.551,2258.316 1654.151,2257.716C1655.751,2257.116 1657.534,2256.816 1659.501,2256.816C1661.467,2256.816 1663.251,2257.124 1664.851,2257.741C1666.451,2258.357 1667.826,2259.224 1668.976,2260.341C1670.126,2261.457 1671.017,2262.816 1671.651,2264.416C1672.284,2266.016 1672.601,2267.782 1672.601,2269.716ZM1655.101,2269.716C1655.101,2271.749 1655.492,2273.307 1656.276,2274.391C1657.059,2275.474 1658.151,2276.016 1659.551,2276.016C1660.951,2276.016 1662.026,2275.466 1662.776,2274.366C1663.526,2273.266 1663.901,2271.716 1663.901,2269.716C1663.901,2267.716 1663.517,2266.174 1662.751,2265.091C1661.984,2264.007 1660.901,2263.466 1659.501,2263.466C1658.101,2263.466 1657.017,2264.007 1656.251,2265.091C1655.484,2266.174 1655.101,2267.716 1655.101,2269.716Z" style="fill:rgb(255,3,50);"/>
            <path d="M1692.351,2281.216C1691.884,2281.582 1691.201,2281.882 1690.301,2282.116C1689.401,2282.349 1688.384,2282.466 1687.251,2282.466C1685.951,2282.466 1684.826,2282.299 1683.876,2281.966C1682.926,2281.632 1682.267,2281.099 1681.901,2280.366C1681.601,2279.799 1681.242,2279.007 1680.826,2277.991C1680.409,2276.974 1679.967,2275.841 1679.501,2274.591C1679.034,2273.341 1678.551,2271.999 1678.051,2270.566C1677.551,2269.132 1677.076,2267.716 1676.626,2266.316C1676.176,2264.916 1675.767,2263.566 1675.401,2262.266C1675.034,2260.966 1674.734,2259.816 1674.501,2258.816C1674.967,2258.349 1675.592,2257.941 1676.376,2257.591C1677.159,2257.241 1678.017,2257.066 1678.951,2257.066C1680.117,2257.066 1681.076,2257.307 1681.826,2257.791C1682.576,2258.274 1683.134,2259.182 1683.501,2260.516L1685.451,2268.166C1685.817,2269.666 1686.167,2271.024 1686.501,2272.241C1686.834,2273.457 1687.084,2274.399 1687.251,2275.066L1687.501,2275.066C1688.134,2272.599 1688.801,2269.866 1689.501,2266.866C1690.201,2263.866 1690.834,2260.916 1691.401,2258.016C1691.967,2257.716 1692.609,2257.482 1693.326,2257.316C1694.042,2257.149 1694.734,2257.066 1695.401,2257.066C1696.567,2257.066 1697.551,2257.316 1698.351,2257.816C1699.151,2258.316 1699.551,2259.182 1699.551,2260.416C1699.551,2260.949 1699.426,2261.724 1699.176,2262.741C1698.926,2263.757 1698.609,2264.907 1698.226,2266.191C1697.842,2267.474 1697.392,2268.832 1696.876,2270.266C1696.359,2271.699 1695.834,2273.099 1695.301,2274.466C1694.767,2275.832 1694.242,2277.107 1693.726,2278.291C1693.209,2279.474 1692.751,2280.449 1692.351,2281.216Z" style="fill:rgb(255,3,50);"/>
            <path d="M1713.251,2276.466C1713.817,2276.466 1714.442,2276.407 1715.126,2276.291C1715.809,2276.174 1716.317,2276.016 1716.651,2275.816L1716.651,2271.816L1713.051,2272.116C1712.117,2272.182 1711.351,2272.382 1710.751,2272.716C1710.151,2273.049 1709.851,2273.549 1709.851,2274.216C1709.851,2274.882 1710.109,2275.424 1710.626,2275.841C1711.142,2276.257 1712.017,2276.466 1713.251,2276.466ZM1712.851,2256.816C1714.651,2256.816 1716.292,2256.999 1717.776,2257.366C1719.259,2257.732 1720.526,2258.291 1721.576,2259.041C1722.626,2259.791 1723.434,2260.741 1724.001,2261.891C1724.567,2263.041 1724.851,2264.399 1724.851,2265.966L1724.851,2277.166C1724.851,2278.032 1724.609,2278.741 1724.126,2279.291C1723.642,2279.841 1723.067,2280.316 1722.401,2280.716C1720.234,2282.016 1717.184,2282.666 1713.251,2282.666C1711.484,2282.666 1709.892,2282.499 1708.476,2282.166C1707.059,2281.832 1705.842,2281.332 1704.826,2280.666C1703.809,2279.999 1703.026,2279.149 1702.476,2278.116C1701.926,2277.082 1701.651,2275.882 1701.651,2274.516C1701.651,2272.216 1702.334,2270.449 1703.701,2269.216C1705.067,2267.982 1707.184,2267.216 1710.051,2266.916L1716.601,2266.216L1716.601,2265.866C1716.601,2264.899 1716.176,2264.207 1715.326,2263.791C1714.476,2263.374 1713.251,2263.166 1711.651,2263.166C1710.384,2263.166 1709.151,2263.299 1707.951,2263.566C1706.751,2263.832 1705.667,2264.166 1704.701,2264.566C1704.267,2264.266 1703.901,2263.807 1703.601,2263.191C1703.301,2262.574 1703.151,2261.932 1703.151,2261.266C1703.151,2260.399 1703.359,2259.707 1703.776,2259.191C1704.192,2258.674 1704.834,2258.232 1705.701,2257.866C1706.667,2257.499 1707.809,2257.232 1709.126,2257.066C1710.442,2256.899 1711.684,2256.816 1712.851,2256.816Z" style="fill:rgb(255,3,50);"/>
        </g>
        <g transform="matrix(0.207827,0,0,0.207827,640.198964,857.228023)">
            <g transform="matrix(1,0,0,1,-208.333333,-260.416667)">
                <clipPath id="_clip1">
                    <rect x="0" y="0" width="416.667" height="520.833"/>
                </clipPath>
                <g clip-path="url(#_clip1)">
                    <g transform="matrix(4.438574,0,0,4.438574,-13.595351,38.486318)">
                        <path d="M51.558,44.756C51.438,44.716 51.316,44.71 51.192,44.733C50.962,44.777 50.544,44.882 50,45.135C49.456,44.882 49.038,44.777 48.809,44.734C48.685,44.711 48.562,44.717 48.443,44.757C46.586,45.374 45.2,47.835 45.2,47.835C45.2,47.835 45.738,48.54 47.737,47.676C48.243,47.457 48.808,47.431 49.334,47.594C49.55,47.661 49.784,47.711 49.999,47.709C50.214,47.71 50.449,47.66 50.664,47.594C51.19,47.431 51.755,47.458 52.261,47.676C54.262,48.54 54.8,47.835 54.8,47.835C54.8,47.835 53.414,45.374 51.558,44.756Z" style="fill:rgb(255,3,50);fill-rule:nonzero;"/>
                    </g>
                    <g transform="matrix(4.438574,0,0,4.438574,-13.595351,38.486318)">
                        <path d="M51.236,48.512C51.236,48.512 50.588,48.87 50,48.835C49.412,48.87 48.764,48.512 48.764,48.512C46.681,47.471 45.6,48.835 45.6,48.835C45.6,48.835 47.082,51.717 50,51.717C52.918,51.717 54.4,48.835 54.4,48.835C54.4,48.835 53.319,47.471 51.236,48.512Z" style="fill:rgb(255,3,50);fill-rule:nonzero;"/>
                    </g>
                    <g transform="matrix(4.438574,0,0,4.438574,-13.595351,38.486318)">
                        <path d="M67.649,18.843L32.351,18.843L31.557,22.465L68.443,22.465L67.649,18.843Z" style="fill:rgb(255,3,50);fill-rule:nonzero;"/>
                    </g>
                    <g transform="matrix(4.438574,0,0,4.438574,-13.597571,38.490756)">
                        <path d="M64.884,6.226C64.51,4.521 63.038,3.28 61.294,3.201L52.712,2.81C50.905,2.728 49.095,2.728 47.288,2.81L38.706,3.201C36.962,3.28 35.49,4.522 35.116,6.226L32.607,17.674L67.394,17.674L64.884,6.226Z" style="fill:rgb(255,3,50);fill-rule:nonzero;"/>
                    </g>
                    <path d="M414.483,197.96C415.81,198.55 416.667,199.868 416.667,201.311L416.667,205.097C416.667,206.069 415.881,206.855 414.909,206.855L308.911,206.855L313.971,252.128L291.082,252.128L290.003,259.674L263.079,259.674C259.017,265.959 253.793,271.662 247.229,275.324C246.714,280.389 244.841,301.028 246.137,321.827L254.321,323.398C254.929,323.514 255.396,323.967 255.502,324.575C256.323,329.253 260.065,349.475 265.001,359.329C265.768,360.86 267.007,362.081 268.534,362.866L305.183,381.735C305.183,381.735 260.66,409.795 209.616,415.539C208.764,415.636 207.894,415.636 207.042,415.539C156.007,409.795 111.479,381.735 111.479,381.735L148.129,362.866C149.655,362.085 150.894,360.864 151.662,359.333C156.597,349.484 160.339,329.253 161.16,324.575C161.267,323.967 161.733,323.514 162.341,323.398L170.526,321.832C171.822,301.041 169.953,280.411 169.434,275.337C162.86,271.693 157.632,265.977 153.566,259.683L126.664,259.683L125.585,252.137L102.695,252.137L107.755,206.864L1.758,206.864C0.786,206.864 -0,206.078 -0,205.106L-0,201.32C-0,199.864 0.857,198.55 2.184,197.96L125.332,143.392L125.332,143.383L291.335,143.383L291.335,143.392L414.483,197.96ZM244.246,271.96C264.832,261.285 271.556,226.34 271.623,225.989L275.085,206.864L141.591,206.864L145.053,225.998C145.115,226.34 151.839,261.281 172.341,271.915L185.364,279.346C191.205,282.679 197.512,285.014 204.108,286.287C206.913,286.838 209.754,286.829 212.559,286.287C219.159,285.014 225.471,282.679 231.307,279.346L244.246,271.96ZM208.333,337.358C220.406,337.695 233.132,333.625 242.315,329.825C240.149,309.204 241.658,287.282 242.497,278.067L233.504,283.203C227.237,286.78 220.477,289.283 213.398,290.651C211.716,290.975 210.024,291.134 208.329,291.134C206.638,291.134 204.942,290.975 203.26,290.651C196.189,289.283 189.425,286.776 183.158,283.203L174.161,278.067C174.995,287.282 176.509,309.204 174.343,329.821C183.531,333.625 196.26,337.695 208.333,337.358Z" style="fill:rgb(255,3,50);"/>
                </g>
            </g>
        </g>
    </g>
</svg>
