<?xml version="1.0" encoding="UTF-8" standalone="no"?>
<!DOCTYPE svg PUBLIC "-//W3C//DTD SVG 1.1//EN" "http://www.w3.org/Graphics/SVG/1.1/DTD/svg11.dtd">
<svg width="100%" height="100%" viewBox="0 0 3000 3000" version="1.1" xmlns="http://www.w3.org/2000/svg" xmlns:xlink="http://www.w3.org/1999/xlink" xml:space="preserve" xmlns:serif="http://www.serif.com/" style="fill-rule:evenodd;clip-rule:evenodd;stroke-linejoin:round;stroke-miterlimit:2;">
    <g transform="matrix(1.016155,0,0,1.016155,-153.92436,1205.569061)">
        <g transform="matrix(1.71386,0,0,1.71386,-943.160201,-2588.970084)">
            <g transform="matrix(1,0,0,1,0.033279,-0.011697)">
                <path d="M2181.663,2168.863L2181.663,2181.644L2168.882,2181.644C2168.882,2181.644 2005.303,2181.644 1937.695,2181.644C1921.839,2181.644 1908.985,2168.79 1908.985,2152.934C1908.985,2113.207 1908.984,2046.309 1908.984,2046.309L1908.984,1908.966L1908.985,1636.287L1908.984,1521.002L1908.984,1520.387C1909.316,1513.633 1909.484,1506.836 1909.484,1500C1909.484,1493.164 1909.316,1486.367 1908.984,1479.613C1906.995,1439.127 1899.115,1400.179 1886.183,1363.609C1845.027,1247.22 1752.706,1154.918 1636.306,1113.786C1600.017,1100.963 1561.387,1093.113 1521.237,1091.058C1514.203,1090.698 1507.123,1090.515 1500.001,1090.515C1492.878,1090.515 1485.798,1090.698 1478.765,1091.058C1438.59,1093.114 1399.937,1100.973 1363.627,1113.81C1247.259,1154.954 1154.967,1247.243 1113.818,1363.609C1100.734,1400.611 1092.821,1440.048 1090.949,1481.049C1090.663,1487.33 1090.518,1493.648 1090.518,1500C1090.518,1506.352 1090.663,1512.67 1090.949,1518.951L1090.95,1636.287L1090.949,1908.966L1090.949,2046.258C1090.949,2046.258 1090.95,2113.193 1090.95,2152.934C1090.95,2160.548 1087.925,2167.851 1082.541,2173.235C1077.157,2178.619 1069.854,2181.644 1062.24,2181.644C994.644,2181.644 831.118,2181.644 831.118,2181.644L818.271,2181.644L818.271,2168.708L818.271,1908.966L818.271,1636.287L818.271,1528.103L818.271,1471.794L818.271,1469.508C819.858,1433.409 824.25,1398.039 831.235,1363.609C851.655,1262.943 894.234,1170.322 953.66,1091.058C992.666,1039.03 1038.93,992.758 1090.949,953.742C1170.242,894.27 1262.909,851.66 1363.627,831.232C1397.306,824.401 1431.885,820.051 1467.165,818.379L1532.838,818.379C1568.094,820.05 1602.649,824.395 1636.306,831.218C1737.022,851.635 1829.688,894.232 1908.984,953.691C1961.031,992.717 2007.318,1039.008 2046.341,1091.058C2105.767,1170.322 2148.346,1262.943 2168.766,1363.609C2175.654,1397.566 2180.021,1432.439 2181.663,1468.022L2181.663,1531.978L2181.663,1636.287L2181.663,1908.966L2181.663,2168.863ZM2018.986,1736.174L2018.986,1769.415C2018.986,1777.212 2022.083,1784.691 2027.597,1790.205C2033.111,1795.719 2040.59,1798.817 2048.388,1798.817L2048.391,1798.817C2056.189,1798.817 2063.667,1795.719 2069.181,1790.205C2074.695,1784.691 2077.793,1777.212 2077.793,1769.415L2077.793,1736.174L2111.034,1736.174C2118.832,1736.174 2126.31,1733.076 2131.824,1727.562C2137.338,1722.048 2140.436,1714.57 2140.436,1706.772L2140.436,1706.768C2140.436,1698.971 2137.338,1691.492 2131.824,1685.978C2126.31,1680.464 2118.832,1677.366 2111.034,1677.366L2077.793,1677.366L2077.793,1644.126C2077.793,1636.328 2074.695,1628.849 2069.181,1623.335C2063.667,1617.821 2056.189,1614.724 2048.391,1614.724L2048.388,1614.724C2040.59,1614.724 2033.111,1617.821 2027.597,1623.335C2022.083,1628.849 2018.986,1636.328 2018.986,1644.126L2018.986,1677.366L1985.745,1677.366C1977.947,1677.366 1970.468,1680.464 1964.954,1685.978C1959.441,1691.492 1956.343,1698.971 1956.343,1706.768L1956.343,1706.772C1956.343,1714.57 1959.441,1722.048 1964.954,1727.562C1970.468,1733.076 1977.947,1736.174 1985.745,1736.174L2018.986,1736.174Z" style="fill:rgb(255,3,50);"/>
            </g>
            <g transform="matrix(1.371604,0,0,1.029367,-571.295222,-64.067521)">
                <path d="M1601.955,1141.319L1601.955,2120.453C1601.955,2154.219 1581.381,2181.632 1556.04,2181.632L1464.211,2181.632C1438.87,2181.632 1418.297,2154.219 1418.297,2120.453L1418.297,1141.319C1418.297,1107.553 1438.87,1080.139 1464.211,1080.139L1556.04,1080.139C1581.381,1080.139 1601.955,1107.553 1601.955,1141.319Z" style="fill:rgb(255,3,50);"/>
            </g>
        </g>
        <g transform="matrix(11.430749,0,0,11.430749,-16710.045903,-24326.676528)">
            <text x="1499.151px" y="2281.866px" style="font-family:'BalooBhaijaan2-Bold', 'Baloo Bhaijaan 2';font-weight:700;font-size:50px;">Minds<tspan x="1634.251px " y="2281.866px ">e</tspan>t</text>
            <g transform="matrix(50,0,0,50,1708.200516,2281.865796)">
            </g>
            <text x="1680.901px" y="2281.866px" style="font-family:'BalooBhaijaan2-Bold', 'Baloo Bhaijaan 2';font-weight:700;font-size:50px;fill:rgb(255,3,50);">+</text>
        </g>
    </g>
</svg>
